<?xml version="1.0" encoding="utf-8"?>
<!-- Generator: Adobe Illustrator 27.0.1, SVG Export Plug-In . SVG Version: 6.00 Build 0)  -->
<svg version="1.1" id="Calque_1" xmlns="http://www.w3.org/2000/svg" xmlns:xlink="http://www.w3.org/1999/xlink" x="0px" y="0px"
	 viewBox="0 0 757.79 180.07" style="enable-background:new 0 0 757.79 180.07;" xml:space="preserve">
<style type="text/css">
	.st0{fill:#FFFFFF;}
</style>
<g>
	<g>
		<path class="st0" d="M212.46,125.64c-10.8,0-19.2-2.65-24.97-7.88c-5.32-4.81-8.13-11.58-8.13-19.57c0-8.01,2.77-14.77,8-19.54
			c5.74-5.24,14.18-7.9,25.1-7.9c10.92,0,19.36,2.66,25.1,7.9c5.23,4.78,8,11.54,8,19.54c0,7.99-2.81,14.75-8.13,19.57
			C231.66,122.99,223.26,125.64,212.46,125.64z M212.46,84.9c-18.95,0-18.95,9.66-18.95,13.29c0,3.29,0,13.29,18.95,13.29
			c18.95,0,18.95-10.01,18.95-13.29C231.41,94.56,231.41,84.9,212.46,84.9z"/>
	</g>
	<g>
		<rect x="400.38" y="54.96" class="st0" width="14.15" height="69.48"/>
	</g>
	<g>
		<rect x="529.37" y="54.96" class="st0" width="14.15" height="69.48"/>
	</g>
	<g>
		<path class="st0" d="M498.6,124.43h-46.02V54.64h43.13c15,0,24.7,8.25,24.7,21.02c0,4.99-1.54,9.33-4.32,12.77
			c4.24,3.66,6.67,8.89,6.67,15.14C522.76,116.05,513.05,124.43,498.6,124.43z M466.72,110.29h31.87c6.65,0,10.02-2.26,10.02-6.72
			c0-4.48-3.37-6.75-10.02-6.75h-31.87V110.29z M466.72,82.67h28.99c7,0,10.55-2.36,10.55-7.01c0-4.56-3.55-6.87-10.55-6.87h-28.99
			V82.67z"/>
	</g>
	<g>
		<rect x="158.57" y="54.96" class="st0" width="14.15" height="69.48"/>
	</g>
	<g>
		<path class="st0" d="M152.11,90.39c0,10.27-3.58,18.94-10.36,25.07c-7.48,6.76-18.49,10.2-32.75,10.2
			c-14.25,0-25.28-3.44-32.75-10.2c-6.77-6.13-10.36-14.81-10.36-25.07c0-10.61,4.2-35.27,43.11-35.27
			c26.53,0,36.92,11.47,40.84,22.13h-16.09c-4.52-5.36-12.74-7.98-24.75-7.98c-19.49,0-28.96,6.91-28.96,21.13
			c0,14.01,9.74,21.13,28.96,21.13c16.53,0,26.05-5.27,28.39-15.65h-28.42v-9.62h42.93C152.05,87.77,152.11,89.18,152.11,90.39z"/>
	</g>
	<g>
		<path class="st0" d="M376.61,70.97v4.01c-5.14-2.58-11.57-4.23-19.23-4.23c-10.91,0-19.36,2.66-25.1,7.9
			c-5.23,4.78-7.99,11.54-7.99,19.54c0,7.99,2.81,14.75,8.13,19.57c5.77,5.22,14.18,7.87,24.97,7.87c7.63,0,14.07-2.01,19.23-4.63
			v3.43h14.15V70.97H376.61z M357.39,111.49c-18.95,0-18.95-10-18.95-13.3c0-3.63,0-13.29,18.95-13.29s18.95,9.65,18.95,13.29
			C376.34,101.49,376.34,111.49,357.39,111.49z"/>
	</g>
	<g>
		<path class="st0" d="M310.22,78.65c-5.74-5.24-14.18-7.9-25.1-7.9c-7.65,0-14.09,1.65-19.23,4.23V54.95h-14.15v69.48h14.15v-3.43
			c5.16,2.63,11.59,4.63,19.23,4.63c10.8,0,19.2-2.65,24.98-7.87c5.31-4.82,8.13-11.58,8.13-19.57
			C318.22,90.19,315.45,83.43,310.22,78.65z M285.11,111.49c-18.95,0-18.95-10-18.95-13.3c0-3.63,0-13.29,18.95-13.29
			c18.95,0,18.95,9.65,18.95,13.29C304.06,101.49,304.06,111.49,285.11,111.49z"/>
	</g>
	<g>
		<path class="st0" d="M619.41,70.97v53.46h-14.15v-3.26c-5.11,2.54-11.45,4.49-18.95,4.49c-10.8,0-19.2-2.65-24.98-7.88
			c-5.31-4.81-8.13-11.57-8.13-19.56V71h14.15v27.23c0,3.29,0,13.29,18.95,13.29s18.95-10.01,18.95-13.29V70.97H619.41z"/>
	</g>
	<g>
		<path class="st0" d="M691.73,101.49c0.11-1.07,0.17-2.17,0.17-3.29c0-8.01-2.77-14.76-8-19.54c-5.74-5.24-14.18-7.9-25.1-7.9
			c-10.91,0-19.36,2.66-25.1,7.9c-5.24,4.78-8,11.54-8,19.54c0,7.99,2.81,14.75,8.13,19.57c5.77,5.22,14.18,7.87,24.97,7.87
			c10.8,0,19.2-2.65,24.98-7.87c3.1-2.81,5.35-6.28,6.69-10.28h-16.47c-2.69,2.27-7.29,4.01-15.19,4.01
			c-14.45,0-17.88-5.82-18.69-10.04h37.38c0,0.01,0,0.02-0.01,0.04H691.73z M641.1,91.86c1.85-3.53,6.42-6.95,17.69-6.95
			s15.84,3.42,17.69,6.95H641.1z"/>
	</g>
</g>
</svg>
